<?xml version="1.0" encoding="utf-8"?>
<!-- Svg Vector Icons : http://www.onlinewebfonts.com/icon -->
<!DOCTYPE svg PUBLIC "-//W3C//DTD SVG 1.1//EN" "http://www.w3.org/Graphics/SVG/1.1/DTD/svg11.dtd">
<svg version="1.1" xmlns="http://www.w3.org/2000/svg" xmlns:xlink="http://www.w3.org/1999/xlink" x="0px" y="0px" viewBox="0 0 1000 1000" enable-background="new 0 0 1000 1000" xml:space="preserve">
<metadata> Svg Vector Icons : http://www.onlinewebfonts.com/icon </metadata>
<g><g transform="translate(0.000000,511.000000) scale(0.100000,-0.100000)"><path d="M165.1,3720l-65.1-65.1V1145.6c0-2729.4-5.7-2589.7,105.3-2639.5c36.4-17.2,482.3-23,1789.6-23c958.9,0,1741.8-5.7,1741.8-15.3c0-57.4-233.5-323.5-382.8-434.5c-296.7-218.2-826.9-373.2-1282.4-373.2c-187.6,0-271.8-32.5-313.9-124.4c-42.1-88-44-876.6-3.8-976.2c57.4-134-193.3-124.4,3246.2-124.4c3439.6,0,3188.8-9.6,3246.2,124.4c40.2,99.5,38.3,888.1-3.8,976.2c-42.1,91.9-126.3,124.4-313.9,124.4c-455.5,0-985.7,155-1282.4,373.2c-149.3,111-382.8,377.1-382.8,434.5c0,9.6,782.9,15.3,1741.8,15.3c1209.7,0,1753.3,5.7,1785.8,21c24.9,11.5,59.3,44,76.6,74.7c30.6,49.8,32.5,256.5,32.5,2564.8v2511.2l-65.1,65.1l-65.1,65.1H5000H230.2L165.1,3720z M9494.2,1130.3l3.8-2245.2H5000H502v2235.6c0,1230.7,5.7,2243.3,13.4,2249c5.7,7.7,2028.9,11.5,4492.3,9.6l4480.8-5.7L9494.2,1130.3z M5876.7-1673.8c277.5-589.5,976.2-997.2,1814.5-1062.3l160.8-11.5v-206.7v-208.6H5000H2148.1v208.6v206.7l166.5,13.4c830.7,63.2,1521.7,467,1806.9,1056.5l78.5,160.8H5000h802L5876.7-1673.8z"/><path d="M978.6,2906.5l-55.5-55.5V1139.8c0-1550.4,3.8-1715,30.6-1755.2c72.7-103.3-149.3-97.6,4055.9-97.6c3420.4,0,3904.7,3.8,3952.5,28.7c122.5,63.2,114.8-55.5,114.8,1824.1V2851l-55.5,55.5l-55.5,55.5H5000H1034.1L978.6,2906.5z M8675,1134.1v-1426H5000H1325v1426v1426h3675h3675V1134.1z"/><path d="M3870.7,1999.2c-243.1-88-430.7-239.3-627.8-511.1c-120.6-164.6-157-199.1-262.2-248.8c-164.6-78.5-371.3-23-520.6,139.7c-90,97.6-139.7,233.5-139.7,382.8c0,76.6-9.6,101.5-55.5,149.3c-78.5,78.5-187.6,78.5-273.7,0c-63.2-55.5-63.2-57.4-61.2-235.4c0-137.8,11.5-201,44-281.4c149.3-365.6,478.5-595.3,853.7-595.3c287.1,0,495.7,116.8,702.5,392.4c287.1,386.6,534,518.7,780.9,419.2c166.5-67,202.9-204.8,124.4-449.8c-99.5-302.4-68.9-604.8,86.1-830.7c199.1-290.9,503.4-444.1,849.8-426.8c197.2,9.6,331.1,63.2,421.1,168.4c57.4,70.8,67,185.7,21.1,256.5c-65.1,99.5-220.1,111-312,24.9c-68.9-65.1-283.3-59.3-415.4,9.6c-279.5,147.4-354.1,365.6-246.9,731.2c114.8,388.6-9.6,717.8-333,876.6c-112.9,55.5-147.4,63.2-317.7,68.9C4023.8,2043.3,3976,2037.5,3870.7,1999.2z"/><path d="M6917.9,1306.4c-744.6-570.4-865.1-669.9-884.3-729.3c-42.1-128.2,53.6-256.5,193.3-256.5c61.3,0,101.5,21.1,241.2,128.2c916.8,696.7,1540.8,1182.9,1565.7,1217.3c59.3,84.2,23,225.9-68.9,273.7C7830.9,2008.8,7846.2,2016.5,6917.9,1306.4z"/></g></g>
</svg>