<?xml version="1.0" standalone="no"?>
<!DOCTYPE svg PUBLIC "-//W3C//DTD SVG 20010904//EN"
 "http://www.w3.org/TR/2001/REC-SVG-20010904/DTD/svg10.dtd">
<svg version="1.0" xmlns="http://www.w3.org/2000/svg"
 width="407.000000pt" height="407.000000pt" viewBox="0 0 407.000000 407.000000"
 preserveAspectRatio="xMidYMid meet">
<metadata>
Created by potrace 1.16, written by Peter Selinger 2001-2019
</metadata>
<g transform="translate(0.000000,407.000000) scale(0.100000,-0.100000)"
fill="#000000" stroke="none">
<path d="M321 4061 c-45 -12 -111 -42 -111 -52 0 -4 232 -236 515 -516 383
-378 528 -515 568 -536 40 -21 172 -53 586 -142 332 -72 555 -115 591 -115 44
0 71 7 111 28 30 15 54 33 54 39 0 22 -499 386 -851 621 -462 308 -936 584
-1099 641 -88 30 -114 35 -215 37 -63 2 -130 -1 -149 -5z"/>
<path d="M57 3859 c-54 -84 -74 -292 -42 -436 16 -72 60 -199 74 -215 11 -11
750 -168 766 -162 8 3 15 13 15 22 0 9 -179 196 -399 416 -398 398 -399 399
-414 375z"/>
<path d="M130 3063 c0 -5 12 -62 26 -128 14 -66 36 -186 48 -267 l23 -146 277
-520 c287 -537 290 -542 350 -542 13 0 52 21 87 47 87 63 492 365 663 493 150
112 168 136 146 189 -6 15 -149 165 -318 333 -237 236 -319 312 -361 333 -40
20 -172 53 -489 121 -238 52 -437 94 -443 94 -5 0 -9 -3 -9 -7z"/>
<path d="M1497 2763 c-4 -3 -7 -11 -7 -17 0 -15 390 -405 422 -422 15 -8 45
-14 66 -14 43 0 88 27 252 153 74 56 96 78 98 100 3 21 -2 29 -21 36 -35 14
-756 171 -782 171 -12 0 -25 -3 -28 -7z"/>
<path d="M2624 2499 c-35 -10 -82 -41 -291 -196 -168 -124 -187 -142 -187
-189 0 -32 20 -54 280 -315 153 -153 284 -278 290 -277 7 2 100 62 207 133
l195 130 21 70 c43 144 22 330 -55 475 -62 118 -63 119 -209 151 -134 29 -197
34 -251 18z"/>
<path d="M247 1878 c-3 -95 -12 -222 -19 -283 -6 -60 -12 -130 -13 -155 l0
-44 175 -34 c187 -36 220 -34 220 9 0 19 -328 651 -349 672 -4 4 -11 -70 -14
-165z"/>
<path d="M1894 1963 c-12 -2 -217 -149 -455 -327 -361 -269 -435 -327 -437
-349 -3 -20 2 -29 20 -37 26 -11 944 -181 992 -183 26 -2 78 29 279 163 135
91 246 170 247 175 0 6 -123 133 -272 281 -220 219 -280 272 -307 278 -18 3
-36 5 -40 5 -3 -1 -16 -4 -27 -6z"/>
<path d="M170 1183 c0 -17 -49 -224 -65 -273 -11 -34 4 -25 154 87 179 134
184 159 32 187 -107 20 -121 20 -121 -1z"/>
<path d="M699 1082 c-14 -9 -177 -129 -362 -267 l-337 -249 0 -101 c0 -205 74
-346 222 -425 55 -29 75 -35 151 -38 l88 -4 117 77 c64 43 119 82 120 86 2 5
7 9 12 9 4 0 98 61 209 135 l200 135 -46 87 c-254 486 -304 573 -332 572 -9 0
-28 -8 -42 -17z"/>
<path d="M1060 1015 c-7 -8 -9 -24 -5 -37 7 -21 127 -251 197 -375 l29 -53
254 171 c140 94 257 174 259 178 5 7 -658 132 -700 131 -12 0 -27 -7 -34 -15z"/>
</g>
</svg>
